<?xml version="1.0" encoding="utf-8"?>
<!-- Generator: Adobe Illustrator 26.3.1, SVG Export Plug-In . SVG Version: 6.00 Build 0)  -->
<svg version="1.1" id="pp" xmlns="http://www.w3.org/2000/svg" xmlns:xlink="http://www.w3.org/1999/xlink" x="0px" y="0px"
	 viewBox="0 0 640.3 400" style="enable-background:new 0 0 640.3 400;" xml:space="preserve">
<style type="text/css">
	.st0{fill:#075985;}
	.st1{fill:#7E7E7E;}
	.st2{fill:#FCD34D;}
</style>
<g>
	<path class="st0" d="M396.6,369.1c0,19.8-8.7,30.9-30.9,30.9s-30.9-11.1-30.9-30.9l0-369.1h205.4c28.5,0,48.9,4.3,71.1,25.4
		c26.6,24.7,29.1,47.6,29.1,81v193l-243.8,0L396.6,369.1L396.6,369.1z"/>
	<path class="st1" d="M396.6,237.6h181.9V106.4c0-35.3-8-44.5-44.5-44.5H396.6V237.6z"/>
	<path class="st2" d="M425.6,237.6h152.8V127.4c0-29.6-6.8-37.4-37.4-37.4H425.6L425.6,237.6L425.6,237.6z"/>
</g>
<g>
	<path class="st0" d="M61.9,369.1c0,19.8-8.7,30.9-30.9,30.9C8.7,400,0,388.9,0,369.1V106.4c0-33.4,2.5-56.3,29.1-81
		C51.3,4.3,71.8,0,100.2,0h205.4v299.4l-243.8,0L61.9,369.1L61.9,369.1z"/>
	<path class="st1" d="M243.8,61.9H106.4c-36.5,0-44.5,9.3-44.5,44.5v131.2h181.9V61.9z"/>
	<path class="st2" d="M243.8,90H128.4c-30.7,0-37.4,7.8-37.4,37.4v110.2h152.8V90z"/>
</g>
</svg>
